<svg width="83" height="72" viewBox="0 0 83 72" fill="none" xmlns="http://www.w3.org/2000/svg">
<path fill-rule="evenodd" clip-rule="evenodd" d="M64.6985 11.6655C58.5098 5.47677 50.1161 2 41.3639 2C32.6118 2 24.2181 5.47678 18.0294 11.6655C12.435 17.2599 9.05666 24.6562 8.45944 32.4903L13.0208 27.9289C13.4113 27.5384 14.0445 27.5384 14.435 27.9289C14.8255 28.3195 14.8255 28.9526 14.435 29.3431L8.07105 35.7071C7.68053 36.0976 7.04736 36.0976 6.65684 35.7071L0.292877 29.3431C-0.0976486 28.9526 -0.0976486 28.3195 0.292877 27.9289C0.683403 27.5384 1.31657 27.5384 1.70709 27.9289L6.44194 32.6638C7.00552 24.2344 10.6043 16.2622 16.6152 10.2513C23.179 3.68749 32.0814 0 41.3639 0C50.6465 0 59.5489 3.68749 66.1127 10.2513C70.26 14.3985 73.259 19.4795 74.905 25H72.8124C71.2274 20.0159 68.4652 15.4322 64.6985 11.6655Z" fill="black"/>
<path fill-rule="evenodd" clip-rule="evenodd" d="M18.0294 60.3345C24.2181 66.5232 32.6118 70 41.3639 70C50.1161 70 58.5098 66.5232 64.6985 60.3345C70.2929 54.7401 73.6712 47.3438 74.2684 39.5097L69.7071 44.0711C69.3166 44.4616 68.6834 44.4616 68.2929 44.0711C67.9023 43.6805 67.9023 43.0474 68.2929 42.6569L74.6568 36.2929C75.0474 35.9024 75.6805 35.9024 76.071 36.2929L82.435 42.6569C82.8255 43.0474 82.8255 43.6805 82.435 44.0711C82.0445 44.4616 81.4113 44.4616 81.0208 44.0711L76.2859 39.3362C75.7224 47.7656 72.1236 55.7378 66.1127 61.7487C59.5489 68.3125 50.6465 72 41.3639 72C32.0814 72 23.179 68.3125 16.6152 61.7487C12.2187 57.3522 9.1126 51.9065 7.54077 46H9.61485C11.1374 51.3706 14.012 56.3171 18.0294 60.3345Z" fill="black"/>
<rect x="31.6327" y="25.7206" width="14" height="24" rx="1.5" transform="rotate(-15 31.6327 25.7206)" fill="#64FCD9" stroke="black"/>
<circle cx="43.5" cy="43.5" r="1.5" fill="black"/>
</svg>
