<svg width="21" height="20" viewBox="0 0 21 20" fill="none" xmlns="http://www.w3.org/2000/svg">
<path fill-rule="evenodd" clip-rule="evenodd" d="M11.2141 1.44083L13.5301 6.09983C13.6461 6.33483 13.8701 6.49883 14.1301 6.53683L19.3151 7.28583C19.5251 7.31383 19.7141 7.42383 19.8431 7.59183C20.0851 7.90683 20.0481 8.35283 19.7581 8.62383L16.0001 12.2578C15.8091 12.4378 15.7241 12.7018 15.7741 12.9588L16.6741 18.0868C16.7371 18.5118 16.4471 18.9098 16.0221 18.9788C15.8461 19.0058 15.6661 18.9778 15.5061 18.8988L10.8881 16.4778C10.6561 16.3518 10.3781 16.3518 10.1461 16.4778L5.49412 18.9118C5.10512 19.1098 4.62912 18.9628 4.41712 18.5818C4.33612 18.4278 4.30812 18.2528 4.33612 18.0818L5.23612 12.9538C5.28112 12.6978 5.19612 12.4348 5.01012 12.2538L1.23213 8.62083C0.924129 8.31483 0.922129 7.81683 1.22913 7.50883C1.23013 7.50783 1.23113 7.50583 1.23213 7.50483C1.35913 7.38983 1.51513 7.31283 1.68413 7.28283L6.87012 6.53383C7.12912 6.49283 7.35212 6.33083 7.47012 6.09583L9.78411 1.44083C9.87712 1.25183 10.0421 1.10683 10.2421 1.04083C10.4431 0.97383 10.6631 0.98983 10.8521 1.08483C11.0071 1.16183 11.1341 1.28683 11.2141 1.44083Z" fill="#64FCD9" stroke="#200E32" stroke-width="1.5" stroke-linecap="round" stroke-linejoin="round"/>
</svg>
